<mxfile host="app.diagrams.net" modified="2022-07-12T10:14:29.592Z" agent="5.0 (Windows NT 10.0; Win64; x64) AppleWebKit/537.36 (KHTML, like Gecko) Chrome/103.0.0.0 Safari/537.36" etag="LI7hHbgwoPKssmOJho5k" version="20.0.4" type="github" pages="3">
  <diagram id="jyxu2O19Q4zOR1j5VVk1" name="preprocessing">
    <mxGraphModel dx="1955" dy="1150" grid="1" gridSize="10" guides="1" tooltips="1" connect="1" arrows="1" fold="1" page="1" pageScale="1" pageWidth="827" pageHeight="1169" math="0" shadow="0">
      <root>
        <mxCell id="0" />
        <mxCell id="1" parent="0" />
        <mxCell id="x0YamRShH7wEF_Pz-_7j-72" value="" style="rounded=0;whiteSpace=wrap;html=1;fontSize=24;" vertex="1" parent="1">
          <mxGeometry x="10" y="10" width="480" height="830" as="geometry" />
        </mxCell>
        <mxCell id="x0YamRShH7wEF_Pz-_7j-2" value="&lt;font style=&quot;font-size: 24px;&quot;&gt;Preprocessing&lt;/font&gt;" style="text;html=1;strokeColor=none;fillColor=none;align=center;verticalAlign=middle;whiteSpace=wrap;rounded=0;" vertex="1" parent="1">
          <mxGeometry x="40" y="40" width="430" height="30" as="geometry" />
        </mxCell>
        <mxCell id="x0YamRShH7wEF_Pz-_7j-68" value="" style="edgeStyle=orthogonalEdgeStyle;rounded=0;orthogonalLoop=1;jettySize=auto;html=1;fontSize=11;" edge="1" parent="1" source="x0YamRShH7wEF_Pz-_7j-3" target="x0YamRShH7wEF_Pz-_7j-64">
          <mxGeometry relative="1" as="geometry" />
        </mxCell>
        <mxCell id="x0YamRShH7wEF_Pz-_7j-3" value="Keywords" style="swimlane;fontStyle=0;childLayout=stackLayout;horizontal=1;startSize=30;horizontalStack=0;resizeParent=1;resizeParentMax=0;resizeLast=0;collapsible=1;marginBottom=0;fontSize=24;" vertex="1" parent="1">
          <mxGeometry x="180" y="420" width="140" height="120" as="geometry" />
        </mxCell>
        <mxCell id="x0YamRShH7wEF_Pz-_7j-4" value="- specialty" style="text;strokeColor=none;fillColor=none;align=left;verticalAlign=middle;spacingLeft=4;spacingRight=4;overflow=hidden;points=[[0,0.5],[1,0.5]];portConstraint=eastwest;rotatable=0;fontSize=24;" vertex="1" parent="x0YamRShH7wEF_Pz-_7j-3">
          <mxGeometry y="30" width="140" height="30" as="geometry" />
        </mxCell>
        <mxCell id="x0YamRShH7wEF_Pz-_7j-5" value="- word" style="text;strokeColor=none;fillColor=none;align=left;verticalAlign=middle;spacingLeft=4;spacingRight=4;overflow=hidden;points=[[0,0.5],[1,0.5]];portConstraint=eastwest;rotatable=0;fontSize=24;" vertex="1" parent="x0YamRShH7wEF_Pz-_7j-3">
          <mxGeometry y="60" width="140" height="30" as="geometry" />
        </mxCell>
        <mxCell id="x0YamRShH7wEF_Pz-_7j-6" value="- 0/1" style="text;strokeColor=none;fillColor=none;align=left;verticalAlign=middle;spacingLeft=4;spacingRight=4;overflow=hidden;points=[[0,0.5],[1,0.5]];portConstraint=eastwest;rotatable=0;fontSize=24;" vertex="1" parent="x0YamRShH7wEF_Pz-_7j-3">
          <mxGeometry y="90" width="140" height="30" as="geometry" />
        </mxCell>
        <mxCell id="x0YamRShH7wEF_Pz-_7j-16" value="" style="edgeStyle=orthogonalEdgeStyle;rounded=0;orthogonalLoop=1;jettySize=auto;html=1;fontSize=12;" edge="1" parent="1" source="x0YamRShH7wEF_Pz-_7j-8" target="x0YamRShH7wEF_Pz-_7j-14">
          <mxGeometry relative="1" as="geometry" />
        </mxCell>
        <mxCell id="x0YamRShH7wEF_Pz-_7j-8" value="dataset" style="shape=document;whiteSpace=wrap;html=1;boundedLbl=1;fontSize=24;" vertex="1" parent="1">
          <mxGeometry x="118" y="80" width="240" height="80" as="geometry" />
        </mxCell>
        <mxCell id="x0YamRShH7wEF_Pz-_7j-62" style="edgeStyle=orthogonalEdgeStyle;rounded=0;orthogonalLoop=1;jettySize=auto;html=1;exitX=0.5;exitY=1;exitDx=0;exitDy=0;entryX=0.4;entryY=0.1;entryDx=0;entryDy=0;entryPerimeter=0;fontSize=11;" edge="1" parent="1" source="x0YamRShH7wEF_Pz-_7j-14">
          <mxGeometry relative="1" as="geometry">
            <mxPoint x="200.79999999999995" y="301" as="targetPoint" />
          </mxGeometry>
        </mxCell>
        <mxCell id="x0YamRShH7wEF_Pz-_7j-14" value="keywords after Lemmanet / YAKE!" style="whiteSpace=wrap;html=1;sketch=0;fontSize=24;" vertex="1" parent="1">
          <mxGeometry x="103" y="190" width="270" height="60" as="geometry" />
        </mxCell>
        <mxCell id="x0YamRShH7wEF_Pz-_7j-63" style="edgeStyle=orthogonalEdgeStyle;rounded=0;orthogonalLoop=1;jettySize=auto;html=1;exitX=0.55;exitY=0.95;exitDx=0;exitDy=0;exitPerimeter=0;entryX=0.5;entryY=0;entryDx=0;entryDy=0;fontSize=11;" edge="1" parent="1" target="x0YamRShH7wEF_Pz-_7j-3">
          <mxGeometry relative="1" as="geometry">
            <mxPoint x="264.8499999999999" y="394.5" as="sourcePoint" />
          </mxGeometry>
        </mxCell>
        <mxCell id="x0YamRShH7wEF_Pz-_7j-61" value="we checked every keyword&lt;br style=&quot;font-size: 24px;&quot;&gt;&amp;nbsp;and tagged 0/1" style="ellipse;shape=cloud;whiteSpace=wrap;html=1;fontSize=24;" vertex="1" parent="1">
          <mxGeometry x="36" y="290" width="427" height="110" as="geometry" />
        </mxCell>
        <mxCell id="x0YamRShH7wEF_Pz-_7j-64" value="dictionary" style="swimlane;fontStyle=0;childLayout=stackLayout;horizontal=1;startSize=30;horizontalStack=0;resizeParent=1;resizeParentMax=0;resizeLast=0;collapsible=1;marginBottom=0;fontSize=24;" vertex="1" parent="1">
          <mxGeometry x="30" y="610" width="440" height="180" as="geometry" />
        </mxCell>
        <mxCell id="x0YamRShH7wEF_Pz-_7j-65" value="- specialty" style="text;strokeColor=none;fillColor=none;align=left;verticalAlign=middle;spacingLeft=4;spacingRight=4;overflow=hidden;points=[[0,0.5],[1,0.5]];portConstraint=eastwest;rotatable=0;fontSize=24;" vertex="1" parent="x0YamRShH7wEF_Pz-_7j-64">
          <mxGeometry y="30" width="440" height="30" as="geometry" />
        </mxCell>
        <mxCell id="x0YamRShH7wEF_Pz-_7j-70" value="- language" style="text;strokeColor=none;fillColor=none;align=left;verticalAlign=middle;spacingLeft=4;spacingRight=4;overflow=hidden;points=[[0,0.5],[1,0.5]];portConstraint=eastwest;rotatable=0;fontSize=24;" vertex="1" parent="x0YamRShH7wEF_Pz-_7j-64">
          <mxGeometry y="60" width="440" height="30" as="geometry" />
        </mxCell>
        <mxCell id="x0YamRShH7wEF_Pz-_7j-66" value="- word" style="text;strokeColor=none;fillColor=none;align=left;verticalAlign=middle;spacingLeft=4;spacingRight=4;overflow=hidden;points=[[0,0.5],[1,0.5]];portConstraint=eastwest;rotatable=0;fontSize=24;" vertex="1" parent="x0YamRShH7wEF_Pz-_7j-64">
          <mxGeometry y="90" width="440" height="30" as="geometry" />
        </mxCell>
        <mxCell id="x0YamRShH7wEF_Pz-_7j-67" value="- # of times the word appeared" style="text;strokeColor=none;fillColor=none;align=left;verticalAlign=middle;spacingLeft=4;spacingRight=4;overflow=hidden;points=[[0,0.5],[1,0.5]];portConstraint=eastwest;rotatable=0;fontSize=24;" vertex="1" parent="x0YamRShH7wEF_Pz-_7j-64">
          <mxGeometry y="120" width="440" height="30" as="geometry" />
        </mxCell>
        <mxCell id="x0YamRShH7wEF_Pz-_7j-69" value="- confidence of the word being the topic" style="text;strokeColor=none;fillColor=none;align=left;verticalAlign=middle;spacingLeft=4;spacingRight=4;overflow=hidden;points=[[0,0.5],[1,0.5]];portConstraint=eastwest;rotatable=0;fontSize=24;" vertex="1" parent="x0YamRShH7wEF_Pz-_7j-64">
          <mxGeometry y="150" width="440" height="30" as="geometry" />
        </mxCell>
      </root>
    </mxGraphModel>
  </diagram>
  <diagram id="i8Zd2fJNdnHrRVH0XwVi" name="before selecting topics">
    <mxGraphModel dx="2234" dy="1314" grid="1" gridSize="10" guides="1" tooltips="1" connect="1" arrows="1" fold="1" page="1" pageScale="1" pageWidth="827" pageHeight="1169" math="0" shadow="0">
      <root>
        <mxCell id="0" />
        <mxCell id="1" parent="0" />
        <mxCell id="Et_c8rOK6ptVGEacqqJ4-1" value="" style="rounded=0;whiteSpace=wrap;html=1;fontSize=24;" vertex="1" parent="1">
          <mxGeometry x="20" y="160" width="1080" height="1387" as="geometry" />
        </mxCell>
        <mxCell id="Et_c8rOK6ptVGEacqqJ4-2" value="What wil be happening when released?" style="text;html=1;strokeColor=none;fillColor=none;align=center;verticalAlign=middle;whiteSpace=wrap;rounded=0;fontSize=24;" vertex="1" parent="1">
          <mxGeometry x="220" y="187" width="750" height="30" as="geometry" />
        </mxCell>
        <mxCell id="Et_c8rOK6ptVGEacqqJ4-4" style="edgeStyle=orthogonalEdgeStyle;rounded=0;orthogonalLoop=1;jettySize=auto;html=1;exitX=1;exitY=0.5;exitDx=0;exitDy=0;entryX=0;entryY=0.5;entryDx=0;entryDy=0;fontSize=15;" edge="1" parent="1" source="Et_c8rOK6ptVGEacqqJ4-62" target="Et_c8rOK6ptVGEacqqJ4-18">
          <mxGeometry relative="1" as="geometry" />
        </mxCell>
        <mxCell id="Et_c8rOK6ptVGEacqqJ4-5" style="edgeStyle=orthogonalEdgeStyle;rounded=0;orthogonalLoop=1;jettySize=auto;html=1;exitX=0.5;exitY=1;exitDx=0;exitDy=0;entryX=0.5;entryY=0;entryDx=0;entryDy=0;fontSize=20;" edge="1" parent="1" source="Et_c8rOK6ptVGEacqqJ4-62" target="Et_c8rOK6ptVGEacqqJ4-63">
          <mxGeometry relative="1" as="geometry">
            <mxPoint x="115.00000000000045" y="1417" as="targetPoint" />
          </mxGeometry>
        </mxCell>
        <mxCell id="Et_c8rOK6ptVGEacqqJ4-7" style="edgeStyle=orthogonalEdgeStyle;rounded=0;orthogonalLoop=1;jettySize=auto;html=1;exitX=1;exitY=0.5;exitDx=0;exitDy=0;entryX=0.5;entryY=0;entryDx=0;entryDy=0;fontSize=15;" edge="1" parent="1" source="Et_c8rOK6ptVGEacqqJ4-9" target="Et_c8rOK6ptVGEacqqJ4-13">
          <mxGeometry relative="1" as="geometry" />
        </mxCell>
        <mxCell id="Et_c8rOK6ptVGEacqqJ4-8" style="edgeStyle=orthogonalEdgeStyle;rounded=0;orthogonalLoop=1;jettySize=auto;html=1;exitX=0.5;exitY=1;exitDx=0;exitDy=0;entryX=0.6;entryY=0.4;entryDx=0;entryDy=0;entryPerimeter=0;fontSize=20;" edge="1" parent="1" source="Et_c8rOK6ptVGEacqqJ4-9" target="Et_c8rOK6ptVGEacqqJ4-44">
          <mxGeometry relative="1" as="geometry" />
        </mxCell>
        <mxCell id="Et_c8rOK6ptVGEacqqJ4-9" value="&lt;font style=&quot;font-size: 15px;&quot;&gt;&lt;br&gt;Do we have any predefined keywords for their &lt;br&gt;specialty in dictionary for their language?&amp;nbsp;&lt;/font&gt;" style="rhombus;whiteSpace=wrap;html=1;fontSize=24;verticalAlign=top;" vertex="1" parent="1">
          <mxGeometry x="175" y="227" width="505" height="130" as="geometry" />
        </mxCell>
        <mxCell id="Et_c8rOK6ptVGEacqqJ4-10" style="edgeStyle=orthogonalEdgeStyle;rounded=0;orthogonalLoop=1;jettySize=auto;html=1;exitX=1;exitY=0.5;exitDx=0;exitDy=0;fontSize=20;entryX=0;entryY=0;entryDx=163;entryDy=60;entryPerimeter=0;" edge="1" parent="1" source="Et_c8rOK6ptVGEacqqJ4-11" target="Et_c8rOK6ptVGEacqqJ4-60">
          <mxGeometry relative="1" as="geometry">
            <Array as="points">
              <mxPoint x="1090" y="477" />
              <mxPoint x="1090" y="1487" />
            </Array>
          </mxGeometry>
        </mxCell>
        <mxCell id="Et_c8rOK6ptVGEacqqJ4-11" value="&#39;Suggestions&#39; topics" style="rounded=0;whiteSpace=wrap;html=1;fontSize=21;" vertex="1" parent="1">
          <mxGeometry x="367.5" y="447" width="120" height="60" as="geometry" />
        </mxCell>
        <mxCell id="Et_c8rOK6ptVGEacqqJ4-12" style="edgeStyle=orthogonalEdgeStyle;rounded=0;orthogonalLoop=1;jettySize=auto;html=1;exitX=0;exitY=0.5;exitDx=0;exitDy=0;fontSize=15;entryX=0.592;entryY=0.564;entryDx=0;entryDy=0;entryPerimeter=0;" edge="1" parent="1" source="Et_c8rOK6ptVGEacqqJ4-13" target="Et_c8rOK6ptVGEacqqJ4-44">
          <mxGeometry relative="1" as="geometry">
            <mxPoint x="430" y="387" as="targetPoint" />
          </mxGeometry>
        </mxCell>
        <mxCell id="Et_c8rOK6ptVGEacqqJ4-13" value="get &quot;Suggestions&quot; from dictionary&#39;" style="ellipse;whiteSpace=wrap;html=1;fontSize=20;" vertex="1" parent="1">
          <mxGeometry x="650" y="357" width="260" height="80" as="geometry" />
        </mxCell>
        <mxCell id="Et_c8rOK6ptVGEacqqJ4-14" value="Yes" style="text;html=1;strokeColor=none;fillColor=none;align=center;verticalAlign=middle;whiteSpace=wrap;rounded=0;fontSize=20;" vertex="1" parent="1">
          <mxGeometry x="710.5" y="261" width="60" height="30" as="geometry" />
        </mxCell>
        <mxCell id="Et_c8rOK6ptVGEacqqJ4-15" value="No" style="text;html=1;strokeColor=none;fillColor=none;align=center;verticalAlign=middle;whiteSpace=wrap;rounded=0;fontSize=20;" vertex="1" parent="1">
          <mxGeometry x="366.5" y="359" width="60" height="30" as="geometry" />
        </mxCell>
        <mxCell id="Et_c8rOK6ptVGEacqqJ4-17" style="edgeStyle=orthogonalEdgeStyle;rounded=0;orthogonalLoop=1;jettySize=auto;html=1;exitX=1;exitY=0.5;exitDx=0;exitDy=0;entryX=0;entryY=0.5;entryDx=0;entryDy=0;fontSize=20;" edge="1" parent="1" source="Et_c8rOK6ptVGEacqqJ4-18" target="Et_c8rOK6ptVGEacqqJ4-22">
          <mxGeometry relative="1" as="geometry" />
        </mxCell>
        <mxCell id="axUnMLGqDM_GUon9S2rY-1" style="edgeStyle=orthogonalEdgeStyle;rounded=0;orthogonalLoop=1;jettySize=auto;html=1;exitX=0.5;exitY=0;exitDx=0;exitDy=0;entryX=0;entryY=0.5;entryDx=0;entryDy=0;fontSize=20;" edge="1" parent="1" source="Et_c8rOK6ptVGEacqqJ4-18" target="Et_c8rOK6ptVGEacqqJ4-9">
          <mxGeometry relative="1" as="geometry" />
        </mxCell>
        <mxCell id="Et_c8rOK6ptVGEacqqJ4-18" value="" style="rounded=0;whiteSpace=wrap;html=1;fontSize=15;" vertex="1" parent="1">
          <mxGeometry x="175" y="537" width="290" height="180" as="geometry" />
        </mxCell>
        <mxCell id="Et_c8rOK6ptVGEacqqJ4-19" value="dataset" style="shape=document;whiteSpace=wrap;html=1;boundedLbl=1;fontSize=24;" vertex="1" parent="1">
          <mxGeometry x="190" y="617" width="240" height="85" as="geometry" />
        </mxCell>
        <mxCell id="Et_c8rOK6ptVGEacqqJ4-20" value="&lt;font style=&quot;font-size: 20px;&quot;&gt;- specialty&lt;br&gt;- language&lt;/font&gt;" style="text;html=1;strokeColor=none;fillColor=none;align=left;verticalAlign=middle;whiteSpace=wrap;rounded=0;fontSize=15;" vertex="1" parent="1">
          <mxGeometry x="190" y="547" width="170" height="70" as="geometry" />
        </mxCell>
        <mxCell id="Et_c8rOK6ptVGEacqqJ4-21" style="edgeStyle=orthogonalEdgeStyle;rounded=0;orthogonalLoop=1;jettySize=auto;html=1;exitX=0.5;exitY=1;exitDx=0;exitDy=0;fontSize=20;" edge="1" parent="1" source="Et_c8rOK6ptVGEacqqJ4-22" target="Et_c8rOK6ptVGEacqqJ4-24">
          <mxGeometry relative="1" as="geometry" />
        </mxCell>
        <mxCell id="Et_c8rOK6ptVGEacqqJ4-22" value="processing via lemmanet or yake!" style="ellipse;whiteSpace=wrap;html=1;fontSize=20;" vertex="1" parent="1">
          <mxGeometry x="650" y="572" width="239" height="110" as="geometry" />
        </mxCell>
        <mxCell id="Et_c8rOK6ptVGEacqqJ4-23" style="edgeStyle=orthogonalEdgeStyle;rounded=0;orthogonalLoop=1;jettySize=auto;html=1;exitX=0.5;exitY=1;exitDx=0;exitDy=0;entryX=0.5;entryY=0;entryDx=0;entryDy=0;fontSize=20;" edge="1" parent="1" source="Et_c8rOK6ptVGEacqqJ4-24" target="Et_c8rOK6ptVGEacqqJ4-27">
          <mxGeometry relative="1" as="geometry" />
        </mxCell>
        <mxCell id="Et_c8rOK6ptVGEacqqJ4-24" value="potential keywords" style="rounded=0;whiteSpace=wrap;html=1;fontSize=20;" vertex="1" parent="1">
          <mxGeometry x="673" y="707" width="193" height="50" as="geometry" />
        </mxCell>
        <mxCell id="Et_c8rOK6ptVGEacqqJ4-25" style="edgeStyle=orthogonalEdgeStyle;rounded=0;orthogonalLoop=1;jettySize=auto;html=1;exitX=1;exitY=0.5;exitDx=0;exitDy=0;entryX=0;entryY=0.5;entryDx=0;entryDy=0;fontSize=20;" edge="1" parent="1" source="Et_c8rOK6ptVGEacqqJ4-27" target="Et_c8rOK6ptVGEacqqJ4-31">
          <mxGeometry relative="1" as="geometry" />
        </mxCell>
        <mxCell id="Et_c8rOK6ptVGEacqqJ4-26" style="edgeStyle=orthogonalEdgeStyle;rounded=0;orthogonalLoop=1;jettySize=auto;html=1;exitX=0.5;exitY=1;exitDx=0;exitDy=0;entryX=0.482;entryY=0.647;entryDx=0;entryDy=0;entryPerimeter=0;fontSize=20;" edge="1" parent="1" source="Et_c8rOK6ptVGEacqqJ4-27" target="Et_c8rOK6ptVGEacqqJ4-32">
          <mxGeometry relative="1" as="geometry" />
        </mxCell>
        <mxCell id="Et_c8rOK6ptVGEacqqJ4-27" value="&lt;font style=&quot;font-size: 20px;&quot;&gt;Is POS supported in this language?&lt;/font&gt;" style="rhombus;whiteSpace=wrap;html=1;sketch=0;fontSize=20;" vertex="1" parent="1">
          <mxGeometry x="280" y="797" width="451.5" height="60" as="geometry" />
        </mxCell>
        <mxCell id="Et_c8rOK6ptVGEacqqJ4-28" style="edgeStyle=orthogonalEdgeStyle;rounded=0;orthogonalLoop=1;jettySize=auto;html=1;exitX=0.5;exitY=1;exitDx=0;exitDy=0;fontSize=20;" edge="1" parent="1" source="Et_c8rOK6ptVGEacqqJ4-29" target="Et_c8rOK6ptVGEacqqJ4-35">
          <mxGeometry relative="1" as="geometry">
            <mxPoint x="751.1666666666667" y="1097" as="targetPoint" />
          </mxGeometry>
        </mxCell>
        <mxCell id="Et_c8rOK6ptVGEacqqJ4-29" value="POS tagged keywords" style="whiteSpace=wrap;html=1;sketch=0;fontSize=20;" vertex="1" parent="1">
          <mxGeometry x="691.5" y="917" width="120" height="60" as="geometry" />
        </mxCell>
        <mxCell id="Et_c8rOK6ptVGEacqqJ4-30" style="edgeStyle=orthogonalEdgeStyle;rounded=0;orthogonalLoop=1;jettySize=auto;html=1;exitX=0.5;exitY=1;exitDx=0;exitDy=0;entryX=1.015;entryY=0.847;entryDx=0;entryDy=0;entryPerimeter=0;fontSize=20;" edge="1" parent="1" source="Et_c8rOK6ptVGEacqqJ4-31" target="Et_c8rOK6ptVGEacqqJ4-32">
          <mxGeometry relative="1" as="geometry" />
        </mxCell>
        <mxCell id="Et_c8rOK6ptVGEacqqJ4-31" value="translate keywords &lt;br&gt;for POS" style="ellipse;whiteSpace=wrap;html=1;fontSize=20;" vertex="1" parent="1">
          <mxGeometry x="851.5" y="787" width="228.5" height="70" as="geometry" />
        </mxCell>
        <mxCell id="Et_c8rOK6ptVGEacqqJ4-32" value="" style="shape=waypoint;sketch=0;size=6;pointerEvents=1;points=[];fillColor=default;resizable=0;rotatable=0;perimeter=centerPerimeter;snapToPoint=1;fontSize=20;" vertex="1" parent="1">
          <mxGeometry x="731.5" y="897" width="40" height="40" as="geometry" />
        </mxCell>
        <mxCell id="Et_c8rOK6ptVGEacqqJ4-33" style="edgeStyle=orthogonalEdgeStyle;rounded=0;orthogonalLoop=1;jettySize=auto;html=1;exitX=0;exitY=0.5;exitDx=0;exitDy=0;entryX=0.5;entryY=0;entryDx=0;entryDy=0;fontSize=20;" edge="1" parent="1" source="Et_c8rOK6ptVGEacqqJ4-35" target="Et_c8rOK6ptVGEacqqJ4-46">
          <mxGeometry relative="1" as="geometry">
            <mxPoint x="576.5" y="1072" as="targetPoint" />
          </mxGeometry>
        </mxCell>
        <mxCell id="Et_c8rOK6ptVGEacqqJ4-34" style="edgeStyle=orthogonalEdgeStyle;rounded=0;orthogonalLoop=1;jettySize=auto;html=1;exitX=1;exitY=0.5;exitDx=0;exitDy=0;entryX=0.5;entryY=0;entryDx=0;entryDy=0;fontSize=20;" edge="1" parent="1" source="Et_c8rOK6ptVGEacqqJ4-35" target="Et_c8rOK6ptVGEacqqJ4-40">
          <mxGeometry relative="1" as="geometry" />
        </mxCell>
        <mxCell id="Et_c8rOK6ptVGEacqqJ4-35" value="Is keyword&lt;br&gt;unigram?" style="rhombus;whiteSpace=wrap;html=1;fontSize=20;" vertex="1" parent="1">
          <mxGeometry x="635.75" y="992" width="231.5" height="80" as="geometry" />
        </mxCell>
        <mxCell id="Et_c8rOK6ptVGEacqqJ4-36" value="Yes" style="text;html=1;strokeColor=none;fillColor=none;align=center;verticalAlign=middle;whiteSpace=wrap;rounded=0;fontSize=20;" vertex="1" parent="1">
          <mxGeometry x="440" y="862" width="60" height="25" as="geometry" />
        </mxCell>
        <mxCell id="Et_c8rOK6ptVGEacqqJ4-37" value="Yes" style="text;html=1;strokeColor=none;fillColor=none;align=center;verticalAlign=middle;whiteSpace=wrap;rounded=0;fontSize=20;" vertex="1" parent="1">
          <mxGeometry x="575.75" y="997" width="60" height="30" as="geometry" />
        </mxCell>
        <mxCell id="Et_c8rOK6ptVGEacqqJ4-38" style="edgeStyle=orthogonalEdgeStyle;rounded=0;orthogonalLoop=1;jettySize=auto;html=1;exitX=0;exitY=0.5;exitDx=0;exitDy=0;entryX=0.5;entryY=0;entryDx=0;entryDy=0;fontSize=20;" edge="1" parent="1" source="Et_c8rOK6ptVGEacqqJ4-40" target="Et_c8rOK6ptVGEacqqJ4-50">
          <mxGeometry relative="1" as="geometry" />
        </mxCell>
        <mxCell id="Et_c8rOK6ptVGEacqqJ4-39" style="edgeStyle=orthogonalEdgeStyle;rounded=0;orthogonalLoop=1;jettySize=auto;html=1;exitX=0.5;exitY=1;exitDx=0;exitDy=0;fontSize=20;" edge="1" parent="1" source="Et_c8rOK6ptVGEacqqJ4-40" target="Et_c8rOK6ptVGEacqqJ4-54">
          <mxGeometry relative="1" as="geometry" />
        </mxCell>
        <mxCell id="Et_c8rOK6ptVGEacqqJ4-40" value="is the last &lt;br&gt;word a noun?" style="rhombus;whiteSpace=wrap;html=1;fontSize=20;" vertex="1" parent="1">
          <mxGeometry x="867.25" y="1057" width="198.75" height="80" as="geometry" />
        </mxCell>
        <mxCell id="Et_c8rOK6ptVGEacqqJ4-41" value="No" style="text;html=1;strokeColor=none;fillColor=none;align=center;verticalAlign=middle;whiteSpace=wrap;rounded=0;fontSize=20;" vertex="1" parent="1">
          <mxGeometry x="899" y="1001" width="60" height="30" as="geometry" />
        </mxCell>
        <mxCell id="Et_c8rOK6ptVGEacqqJ4-42" value="No" style="text;html=1;strokeColor=none;fillColor=none;align=center;verticalAlign=middle;whiteSpace=wrap;rounded=0;fontSize=20;" vertex="1" parent="1">
          <mxGeometry x="751.5" y="797" width="60" height="30" as="geometry" />
        </mxCell>
        <mxCell id="Et_c8rOK6ptVGEacqqJ4-43" value="" style="edgeStyle=orthogonalEdgeStyle;rounded=0;orthogonalLoop=1;jettySize=auto;html=1;fontSize=20;" edge="1" parent="1" source="Et_c8rOK6ptVGEacqqJ4-44" target="Et_c8rOK6ptVGEacqqJ4-11">
          <mxGeometry relative="1" as="geometry" />
        </mxCell>
        <mxCell id="Et_c8rOK6ptVGEacqqJ4-44" value="" style="shape=waypoint;sketch=0;size=6;pointerEvents=1;points=[];fillColor=default;resizable=0;rotatable=0;perimeter=centerPerimeter;snapToPoint=1;fontSize=20;" vertex="1" parent="1">
          <mxGeometry x="407.5" y="377" width="40" height="40" as="geometry" />
        </mxCell>
        <mxCell id="Et_c8rOK6ptVGEacqqJ4-45" style="edgeStyle=orthogonalEdgeStyle;rounded=0;orthogonalLoop=1;jettySize=auto;html=1;exitX=0;exitY=0.5;exitDx=0;exitDy=0;entryX=0.5;entryY=0;entryDx=0;entryDy=0;fontSize=20;" edge="1" parent="1" source="Et_c8rOK6ptVGEacqqJ4-46" target="Et_c8rOK6ptVGEacqqJ4-48">
          <mxGeometry relative="1" as="geometry" />
        </mxCell>
        <mxCell id="Et_c8rOK6ptVGEacqqJ4-46" value="is the&lt;br&gt;word a noun?" style="rhombus;whiteSpace=wrap;html=1;fontSize=20;" vertex="1" parent="1">
          <mxGeometry x="460.63" y="1057" width="198.75" height="80" as="geometry" />
        </mxCell>
        <mxCell id="Et_c8rOK6ptVGEacqqJ4-47" style="edgeStyle=orthogonalEdgeStyle;rounded=0;orthogonalLoop=1;jettySize=auto;html=1;exitX=0.5;exitY=1;exitDx=0;exitDy=0;entryX=0;entryY=0;entryDx=170;entryDy=65;entryPerimeter=0;fontSize=20;" edge="1" parent="1" source="Et_c8rOK6ptVGEacqqJ4-48" target="Et_c8rOK6ptVGEacqqJ4-61">
          <mxGeometry relative="1" as="geometry" />
        </mxCell>
        <mxCell id="Et_c8rOK6ptVGEacqqJ4-48" value="(word, 1)" style="rounded=0;whiteSpace=wrap;html=1;fontSize=20;" vertex="1" parent="1">
          <mxGeometry x="500" y="1197" width="120" height="60" as="geometry" />
        </mxCell>
        <mxCell id="Et_c8rOK6ptVGEacqqJ4-49" style="edgeStyle=orthogonalEdgeStyle;rounded=0;orthogonalLoop=1;jettySize=auto;html=1;exitX=0.5;exitY=1;exitDx=0;exitDy=0;fontSize=20;" edge="1" parent="1" source="Et_c8rOK6ptVGEacqqJ4-50">
          <mxGeometry relative="1" as="geometry">
            <mxPoint x="390" y="1357" as="targetPoint" />
            <Array as="points">
              <mxPoint x="719" y="1357" />
            </Array>
          </mxGeometry>
        </mxCell>
        <mxCell id="Et_c8rOK6ptVGEacqqJ4-50" value="(n-gram, 1)" style="rounded=0;whiteSpace=wrap;html=1;fontSize=20;" vertex="1" parent="1">
          <mxGeometry x="659.3800000000001" y="1147" width="120" height="60" as="geometry" />
        </mxCell>
        <mxCell id="Et_c8rOK6ptVGEacqqJ4-51" style="edgeStyle=orthogonalEdgeStyle;rounded=0;orthogonalLoop=1;jettySize=auto;html=1;exitX=0.5;exitY=1;exitDx=0;exitDy=0;entryX=0;entryY=0;entryDx=163;entryDy=60;entryPerimeter=0;fontSize=20;" edge="1" parent="1" source="Et_c8rOK6ptVGEacqqJ4-52" target="Et_c8rOK6ptVGEacqqJ4-60">
          <mxGeometry relative="1" as="geometry" />
        </mxCell>
        <mxCell id="Et_c8rOK6ptVGEacqqJ4-52" value="(n-gram, 0.5)" style="rounded=0;whiteSpace=wrap;html=1;fontSize=20;" vertex="1" parent="1">
          <mxGeometry x="899" y="1287" width="120" height="60" as="geometry" />
        </mxCell>
        <mxCell id="Et_c8rOK6ptVGEacqqJ4-53" style="edgeStyle=orthogonalEdgeStyle;rounded=0;orthogonalLoop=1;jettySize=auto;html=1;exitX=0;exitY=0.5;exitDx=0;exitDy=0;entryX=0.554;entryY=0.06;entryDx=0;entryDy=0;entryPerimeter=0;fontSize=20;" edge="1" parent="1" source="Et_c8rOK6ptVGEacqqJ4-54" target="Et_c8rOK6ptVGEacqqJ4-52">
          <mxGeometry relative="1" as="geometry" />
        </mxCell>
        <mxCell id="Et_c8rOK6ptVGEacqqJ4-54" value="is there any &lt;br&gt;nouns?" style="rhombus;whiteSpace=wrap;html=1;fontSize=20;" vertex="1" parent="1">
          <mxGeometry x="867.25" y="1177" width="198.75" height="80" as="geometry" />
        </mxCell>
        <mxCell id="Et_c8rOK6ptVGEacqqJ4-55" value="Yes" style="text;html=1;strokeColor=none;fillColor=none;align=center;verticalAlign=middle;whiteSpace=wrap;rounded=0;fontSize=20;" vertex="1" parent="1">
          <mxGeometry x="440" y="1127" width="60" height="30" as="geometry" />
        </mxCell>
        <mxCell id="Et_c8rOK6ptVGEacqqJ4-56" value="Yes" style="text;html=1;strokeColor=none;fillColor=none;align=center;verticalAlign=middle;whiteSpace=wrap;rounded=0;fontSize=20;" vertex="1" parent="1">
          <mxGeometry x="791.5" y="1065" width="60" height="30" as="geometry" />
        </mxCell>
        <mxCell id="Et_c8rOK6ptVGEacqqJ4-57" value="No" style="text;html=1;strokeColor=none;fillColor=none;align=center;verticalAlign=middle;whiteSpace=wrap;rounded=0;fontSize=20;" vertex="1" parent="1">
          <mxGeometry x="970" y="1137" width="60" height="30" as="geometry" />
        </mxCell>
        <mxCell id="Et_c8rOK6ptVGEacqqJ4-58" value="Yes" style="text;html=1;strokeColor=none;fillColor=none;align=center;verticalAlign=middle;whiteSpace=wrap;rounded=0;fontSize=20;" vertex="1" parent="1">
          <mxGeometry x="785" y="1228" width="60" height="30" as="geometry" />
        </mxCell>
        <mxCell id="Et_c8rOK6ptVGEacqqJ4-67" style="edgeStyle=orthogonalEdgeStyle;rounded=0;orthogonalLoop=1;jettySize=auto;html=1;exitX=0;exitY=0.5;exitDx=0;exitDy=0;exitPerimeter=0;entryX=1;entryY=0.5;entryDx=0;entryDy=0;fontSize=20;" edge="1" parent="1" source="Et_c8rOK6ptVGEacqqJ4-60" target="Et_c8rOK6ptVGEacqqJ4-63">
          <mxGeometry relative="1" as="geometry" />
        </mxCell>
        <mxCell id="Et_c8rOK6ptVGEacqqJ4-60" value="Suggestions" style="shape=note;whiteSpace=wrap;html=1;backgroundOutline=1;darkOpacity=0.05;fontSize=20;" vertex="1" parent="1">
          <mxGeometry x="220" y="1427" width="163" height="90" as="geometry" />
        </mxCell>
        <mxCell id="Et_c8rOK6ptVGEacqqJ4-65" style="edgeStyle=orthogonalEdgeStyle;rounded=0;orthogonalLoop=1;jettySize=auto;html=1;exitX=0;exitY=0.5;exitDx=0;exitDy=0;exitPerimeter=0;entryX=1;entryY=0.5;entryDx=0;entryDy=0;fontSize=20;" edge="1" parent="1" source="Et_c8rOK6ptVGEacqqJ4-61" target="Et_c8rOK6ptVGEacqqJ4-63">
          <mxGeometry relative="1" as="geometry" />
        </mxCell>
        <mxCell id="Et_c8rOK6ptVGEacqqJ4-61" value="Topics" style="shape=note;whiteSpace=wrap;html=1;backgroundOutline=1;darkOpacity=0.05;fontSize=20;" vertex="1" parent="1">
          <mxGeometry x="220" y="1287" width="170" height="100" as="geometry" />
        </mxCell>
        <mxCell id="Et_c8rOK6ptVGEacqqJ4-62" value="" style="rounded=0;whiteSpace=wrap;html=1;fontSize=20;" vertex="1" parent="1">
          <mxGeometry x="20" y="557" width="110" height="140" as="geometry" />
        </mxCell>
        <mxCell id="Et_c8rOK6ptVGEacqqJ4-6" value="customer" style="shape=umlActor;verticalLabelPosition=bottom;verticalAlign=top;html=1;outlineConnect=0;fontSize=24;" vertex="1" parent="1">
          <mxGeometry x="62" y="585" width="30" height="60" as="geometry" />
        </mxCell>
        <mxCell id="Et_c8rOK6ptVGEacqqJ4-63" value="" style="rounded=0;whiteSpace=wrap;html=1;fontSize=20;" vertex="1" parent="1">
          <mxGeometry x="50" y="1337" width="110" height="140" as="geometry" />
        </mxCell>
        <mxCell id="Et_c8rOK6ptVGEacqqJ4-64" value="customer" style="shape=umlActor;verticalLabelPosition=bottom;verticalAlign=top;html=1;outlineConnect=0;fontSize=24;" vertex="1" parent="1">
          <mxGeometry x="92" y="1365" width="30" height="60" as="geometry" />
        </mxCell>
      </root>
    </mxGraphModel>
  </diagram>
  <diagram id="scDCGeZa3YWberBm7aEU" name="after selecting topics">
    <mxGraphModel dx="580" dy="1314" grid="1" gridSize="10" guides="1" tooltips="1" connect="1" arrows="1" fold="1" page="1" pageScale="1" pageWidth="827" pageHeight="1169" math="0" shadow="0">
      <root>
        <mxCell id="0" />
        <mxCell id="1" parent="0" />
        <mxCell id="QDKusrpMWWIzrnm8Dfom-1" value="" style="rounded=0;whiteSpace=wrap;html=1;fontSize=20;" vertex="1" parent="1">
          <mxGeometry x="1670" y="10" width="1240" height="770" as="geometry" />
        </mxCell>
        <mxCell id="QDKusrpMWWIzrnm8Dfom-2" value="What will be happening when customer made their choice?" style="text;html=1;strokeColor=none;fillColor=none;align=center;verticalAlign=middle;whiteSpace=wrap;rounded=0;fontSize=20;" vertex="1" parent="1">
          <mxGeometry x="1710" y="40" width="1160" height="30" as="geometry" />
        </mxCell>
        <mxCell id="QDKusrpMWWIzrnm8Dfom-3" style="edgeStyle=orthogonalEdgeStyle;rounded=0;orthogonalLoop=1;jettySize=auto;html=1;exitX=1;exitY=0.5;exitDx=0;exitDy=0;entryX=0;entryY=0.5;entryDx=0;entryDy=0;fontSize=20;startArrow=none;" edge="1" parent="1" source="QDKusrpMWWIzrnm8Dfom-31" target="QDKusrpMWWIzrnm8Dfom-6">
          <mxGeometry relative="1" as="geometry" />
        </mxCell>
        <mxCell id="QDKusrpMWWIzrnm8Dfom-5" style="edgeStyle=orthogonalEdgeStyle;rounded=0;orthogonalLoop=1;jettySize=auto;html=1;exitX=1;exitY=0.5;exitDx=0;exitDy=0;entryX=0;entryY=0.5;entryDx=0;entryDy=0;fontSize=20;" edge="1" parent="1" source="QDKusrpMWWIzrnm8Dfom-6" target="QDKusrpMWWIzrnm8Dfom-19">
          <mxGeometry relative="1" as="geometry" />
        </mxCell>
        <mxCell id="QDKusrpMWWIzrnm8Dfom-6" value="" style="rounded=0;whiteSpace=wrap;html=1;fontSize=20;" vertex="1" parent="1">
          <mxGeometry x="1870" y="91" width="170" height="159" as="geometry" />
        </mxCell>
        <mxCell id="QDKusrpMWWIzrnm8Dfom-7" value="topics" style="swimlane;fontStyle=0;childLayout=stackLayout;horizontal=1;startSize=30;horizontalStack=0;resizeParent=1;resizeParentMax=0;resizeLast=0;collapsible=1;marginBottom=0;fontSize=20;" vertex="1" parent="1">
          <mxGeometry x="1890" y="150" width="140" height="90" as="geometry" />
        </mxCell>
        <mxCell id="QDKusrpMWWIzrnm8Dfom-8" value="topic" style="text;strokeColor=none;fillColor=none;align=left;verticalAlign=middle;spacingLeft=4;spacingRight=4;overflow=hidden;points=[[0,0.5],[1,0.5]];portConstraint=eastwest;rotatable=0;fontSize=20;" vertex="1" parent="QDKusrpMWWIzrnm8Dfom-7">
          <mxGeometry y="30" width="140" height="30" as="geometry" />
        </mxCell>
        <mxCell id="QDKusrpMWWIzrnm8Dfom-9" value="was chosen?" style="text;strokeColor=none;fillColor=none;align=left;verticalAlign=middle;spacingLeft=4;spacingRight=4;overflow=hidden;points=[[0,0.5],[1,0.5]];portConstraint=eastwest;rotatable=0;fontSize=20;" vertex="1" parent="QDKusrpMWWIzrnm8Dfom-7">
          <mxGeometry y="60" width="140" height="30" as="geometry" />
        </mxCell>
        <mxCell id="QDKusrpMWWIzrnm8Dfom-10" value="- specialty&lt;br&gt;- language" style="text;html=1;strokeColor=none;fillColor=none;align=center;verticalAlign=middle;whiteSpace=wrap;rounded=0;fontSize=20;" vertex="1" parent="1">
          <mxGeometry x="1890" y="105" width="120" height="30" as="geometry" />
        </mxCell>
        <mxCell id="QDKusrpMWWIzrnm8Dfom-11" style="edgeStyle=orthogonalEdgeStyle;rounded=0;orthogonalLoop=1;jettySize=auto;html=1;exitX=0.5;exitY=0;exitDx=0;exitDy=0;entryX=0.5;entryY=0;entryDx=0;entryDy=0;fontSize=20;" edge="1" parent="1" source="QDKusrpMWWIzrnm8Dfom-12" target="QDKusrpMWWIzrnm8Dfom-22">
          <mxGeometry relative="1" as="geometry" />
        </mxCell>
        <mxCell id="QDKusrpMWWIzrnm8Dfom-12" value="dictionary" style="swimlane;fontStyle=0;childLayout=stackLayout;horizontal=1;startSize=30;horizontalStack=0;resizeParent=1;resizeParentMax=0;resizeLast=0;collapsible=1;marginBottom=0;fontSize=24;" vertex="1" parent="1">
          <mxGeometry x="1690" y="465" width="440" height="180" as="geometry" />
        </mxCell>
        <mxCell id="QDKusrpMWWIzrnm8Dfom-13" value="- specialty" style="text;strokeColor=none;fillColor=none;align=left;verticalAlign=middle;spacingLeft=4;spacingRight=4;overflow=hidden;points=[[0,0.5],[1,0.5]];portConstraint=eastwest;rotatable=0;fontSize=24;" vertex="1" parent="QDKusrpMWWIzrnm8Dfom-12">
          <mxGeometry y="30" width="440" height="30" as="geometry" />
        </mxCell>
        <mxCell id="QDKusrpMWWIzrnm8Dfom-14" value="- language" style="text;strokeColor=none;fillColor=none;align=left;verticalAlign=middle;spacingLeft=4;spacingRight=4;overflow=hidden;points=[[0,0.5],[1,0.5]];portConstraint=eastwest;rotatable=0;fontSize=24;" vertex="1" parent="QDKusrpMWWIzrnm8Dfom-12">
          <mxGeometry y="60" width="440" height="30" as="geometry" />
        </mxCell>
        <mxCell id="QDKusrpMWWIzrnm8Dfom-15" value="- word" style="text;strokeColor=none;fillColor=none;align=left;verticalAlign=middle;spacingLeft=4;spacingRight=4;overflow=hidden;points=[[0,0.5],[1,0.5]];portConstraint=eastwest;rotatable=0;fontSize=24;" vertex="1" parent="QDKusrpMWWIzrnm8Dfom-12">
          <mxGeometry y="90" width="440" height="30" as="geometry" />
        </mxCell>
        <mxCell id="QDKusrpMWWIzrnm8Dfom-16" value="- # of times the word appeared" style="text;strokeColor=none;fillColor=none;align=left;verticalAlign=middle;spacingLeft=4;spacingRight=4;overflow=hidden;points=[[0,0.5],[1,0.5]];portConstraint=eastwest;rotatable=0;fontSize=24;" vertex="1" parent="QDKusrpMWWIzrnm8Dfom-12">
          <mxGeometry y="120" width="440" height="30" as="geometry" />
        </mxCell>
        <mxCell id="QDKusrpMWWIzrnm8Dfom-17" value="- confidence of the word being the topic" style="text;strokeColor=none;fillColor=none;align=left;verticalAlign=middle;spacingLeft=4;spacingRight=4;overflow=hidden;points=[[0,0.5],[1,0.5]];portConstraint=eastwest;rotatable=0;fontSize=24;" vertex="1" parent="QDKusrpMWWIzrnm8Dfom-12">
          <mxGeometry y="150" width="440" height="30" as="geometry" />
        </mxCell>
        <mxCell id="QDKusrpMWWIzrnm8Dfom-18" style="edgeStyle=orthogonalEdgeStyle;rounded=0;orthogonalLoop=1;jettySize=auto;html=1;exitX=1;exitY=0.5;exitDx=0;exitDy=0;fontSize=20;entryX=0.5;entryY=0;entryDx=0;entryDy=0;" edge="1" parent="1" source="QDKusrpMWWIzrnm8Dfom-19" target="QDKusrpMWWIzrnm8Dfom-22">
          <mxGeometry relative="1" as="geometry">
            <mxPoint x="2490.0000000000005" y="300" as="targetPoint" />
          </mxGeometry>
        </mxCell>
        <mxCell id="QDKusrpMWWIzrnm8Dfom-19" value="(specialty, language, topic, 0/1)" style="rounded=0;whiteSpace=wrap;html=1;fontSize=20;" vertex="1" parent="1">
          <mxGeometry x="2100" y="140.5" width="310" height="60" as="geometry" />
        </mxCell>
        <mxCell id="QDKusrpMWWIzrnm8Dfom-20" style="edgeStyle=orthogonalEdgeStyle;rounded=0;orthogonalLoop=1;jettySize=auto;html=1;exitX=0;exitY=0.5;exitDx=0;exitDy=0;fontSize=20;entryX=0.5;entryY=0;entryDx=0;entryDy=0;" edge="1" parent="1" source="QDKusrpMWWIzrnm8Dfom-22" target="QDKusrpMWWIzrnm8Dfom-24">
          <mxGeometry relative="1" as="geometry" />
        </mxCell>
        <mxCell id="QDKusrpMWWIzrnm8Dfom-21" style="edgeStyle=orthogonalEdgeStyle;rounded=0;orthogonalLoop=1;jettySize=auto;html=1;exitX=0.5;exitY=1;exitDx=0;exitDy=0;entryX=0.5;entryY=0;entryDx=0;entryDy=0;fontSize=20;" edge="1" parent="1" source="QDKusrpMWWIzrnm8Dfom-22" target="QDKusrpMWWIzrnm8Dfom-27">
          <mxGeometry relative="1" as="geometry" />
        </mxCell>
        <mxCell id="QDKusrpMWWIzrnm8Dfom-22" value="Is topic in the dictionary for &lt;br&gt;this specialty and language?" style="rhombus;whiteSpace=wrap;html=1;fontSize=20;" vertex="1" parent="1">
          <mxGeometry x="2370" y="310" width="450" height="80" as="geometry" />
        </mxCell>
        <mxCell id="QDKusrpMWWIzrnm8Dfom-23" style="edgeStyle=orthogonalEdgeStyle;rounded=0;orthogonalLoop=1;jettySize=auto;html=1;exitX=0;exitY=0.5;exitDx=0;exitDy=0;entryX=1;entryY=0.5;entryDx=0;entryDy=0;fontSize=20;" edge="1" parent="1" source="QDKusrpMWWIzrnm8Dfom-24" target="QDKusrpMWWIzrnm8Dfom-15">
          <mxGeometry relative="1" as="geometry" />
        </mxCell>
        <mxCell id="QDKusrpMWWIzrnm8Dfom-24" value="create new record" style="ellipse;whiteSpace=wrap;html=1;fontSize=20;" vertex="1" parent="1">
          <mxGeometry x="2210" y="385" width="120" height="80" as="geometry" />
        </mxCell>
        <mxCell id="QDKusrpMWWIzrnm8Dfom-25" value="No" style="text;html=1;strokeColor=none;fillColor=none;align=center;verticalAlign=middle;whiteSpace=wrap;rounded=0;fontSize=20;" vertex="1" parent="1">
          <mxGeometry x="2287" y="318" width="60" height="30" as="geometry" />
        </mxCell>
        <mxCell id="QDKusrpMWWIzrnm8Dfom-26" style="edgeStyle=orthogonalEdgeStyle;rounded=0;orthogonalLoop=1;jettySize=auto;html=1;exitX=0.5;exitY=1;exitDx=0;exitDy=0;entryX=0.5;entryY=0;entryDx=0;entryDy=0;entryPerimeter=0;fontSize=20;" edge="1" parent="1" source="QDKusrpMWWIzrnm8Dfom-27" target="QDKusrpMWWIzrnm8Dfom-30">
          <mxGeometry relative="1" as="geometry" />
        </mxCell>
        <mxCell id="QDKusrpMWWIzrnm8Dfom-27" value="change the record" style="ellipse;whiteSpace=wrap;html=1;fontSize=20;" vertex="1" parent="1">
          <mxGeometry x="2535" y="465" width="120" height="80" as="geometry" />
        </mxCell>
        <mxCell id="QDKusrpMWWIzrnm8Dfom-28" value="Yes" style="text;html=1;strokeColor=none;fillColor=none;align=center;verticalAlign=middle;whiteSpace=wrap;rounded=0;fontSize=20;" vertex="1" parent="1">
          <mxGeometry x="2595" y="410" width="60" height="30" as="geometry" />
        </mxCell>
        <mxCell id="QDKusrpMWWIzrnm8Dfom-29" style="edgeStyle=orthogonalEdgeStyle;rounded=0;orthogonalLoop=1;jettySize=auto;html=1;exitX=0.5;exitY=1;exitDx=0;exitDy=0;exitPerimeter=0;entryX=1;entryY=0.5;entryDx=0;entryDy=0;fontSize=20;" edge="1" parent="1" source="QDKusrpMWWIzrnm8Dfom-30" target="QDKusrpMWWIzrnm8Dfom-15">
          <mxGeometry relative="1" as="geometry" />
        </mxCell>
        <mxCell id="QDKusrpMWWIzrnm8Dfom-30" value="&amp;nbsp;- specialty&lt;br&gt;&amp;nbsp;- language&lt;br&gt;&amp;nbsp;- word&lt;br&gt;&amp;nbsp;- # = #_prev + 1&lt;br&gt;&amp;nbsp;- confidence = (confidence_prev * #_prev + 0/1)/(#_prev + 1)" style="shape=note;whiteSpace=wrap;html=1;backgroundOutline=1;darkOpacity=0.05;fontSize=20;align=left;" vertex="1" parent="1">
          <mxGeometry x="2272" y="585" width="623" height="135" as="geometry" />
        </mxCell>
        <mxCell id="QDKusrpMWWIzrnm8Dfom-31" value="" style="rounded=0;whiteSpace=wrap;html=1;fontSize=20;" vertex="1" parent="1">
          <mxGeometry x="1680" y="112" width="120" height="116" as="geometry" />
        </mxCell>
        <mxCell id="QDKusrpMWWIzrnm8Dfom-4" value="customer" style="shape=umlActor;verticalLabelPosition=bottom;verticalAlign=top;html=1;outlineConnect=0;fontSize=20;" vertex="1" parent="1">
          <mxGeometry x="1720" y="128" width="30" height="60" as="geometry" />
        </mxCell>
      </root>
    </mxGraphModel>
  </diagram>
</mxfile>
